<?xml version="1.0" standalone="no"?>
<!DOCTYPE svg PUBLIC "-//W3C//DTD SVG 20010904//EN"
 "http://www.w3.org/TR/2001/REC-SVG-20010904/DTD/svg10.dtd">
<svg version="1.0" xmlns="http://www.w3.org/2000/svg"
 width="200.000000pt" height="200.000000pt" viewBox="0 0 200.000000 200.000000"
 preserveAspectRatio="xMidYMid meet">
<metadata>
Created by potrace 1.16, written by Peter Selinger 2001-2019
</metadata>
<g transform="translate(0.000000,200.000000) scale(0.100000,-0.100000)"
fill="#000000" stroke="none">
<path d="M640 1505 l0 -145 -145 0 -145 0 0 -505 0 -505 280 0 280 0 0 140 0
140 95 0 95 0 0 -140 0 -140 275 0 275 0 0 360 0 360 -145 0 -145 0 0 290 0
290 -360 0 -360 0 0 -145z m280 -70 l0 -65 -65 0 -65 0 0 65 0 65 65 0 65 0 0
-65z m290 0 l0 -65 -65 0 -65 0 0 65 0 65 65 0 65 0 0 -65z m-580 -290 l0 -65
-65 0 -65 0 0 65 0 65 65 0 65 0 0 -65z m290 0 l0 -65 -65 0 -65 0 0 65 0 65
65 0 65 0 0 -65z m290 0 l0 -65 -65 0 -65 0 0 65 0 65 65 0 65 0 0 -65z m-580
-290 l0 -65 -65 0 -65 0 0 65 0 65 65 0 65 0 0 -65z m290 0 l0 -65 -65 0 -65
0 0 65 0 65 65 0 65 0 0 -65z m290 0 l0 -65 -65 0 -65 0 0 65 0 65 65 0 65 0
0 -65z m290 0 l0 -65 -65 0 -65 0 0 65 0 65 65 0 65 0 0 -65z m-870 -290 l0
-65 -65 0 -65 0 0 65 0 65 65 0 65 0 0 -65z m870 0 l0 -65 -65 0 -65 0 0 65 0
65 65 0 65 0 0 -65z"/>
</g>
</svg>
